<?xml version="1.0" encoding="utf-8"?>
<!-- Generator: Adobe Illustrator 24.3.0, SVG Export Plug-In . SVG Version: 6.00 Build 0)  -->
<svg version="1.1" id="Layer_1" xmlns="http://www.w3.org/2000/svg" xmlns:xlink="http://www.w3.org/1999/xlink" x="0px" y="0px"
	 viewBox="0 0 250 250" style="enable-background:new 0 0 250 250;" xml:space="preserve">
<style type="text/css">
	.st0{fill:#09244D;}
	.st1{enable-background:new    ;}
	.st2{fill:#FFFFFF;}
	.st3{fill:none;}
</style>
<g>
	<g>
		<path class="st0" d="M219.6,229.5h-184c-6.9,0-12.5-5.6-12.5-12.5V33c0-6.9,5.6-12.5,12.5-12.5h184.1c6.9,0,12.5,5.6,12.5,12.5
			v184C232.1,223.9,226.5,229.5,219.6,229.5z"/>
	</g>
	<g class="st1">
		<path class="st2" d="M46.3,199H51c3.1,0,3.6,2,3.6,3.3c0,1.3-0.6,3.3-3.6,3.3h-2.9v4.1h-1.9V199z M48.1,204.1h2.7
			c0.8,0,1.9-0.4,1.9-1.8c0-1.4-0.9-1.8-1.8-1.8h-2.8V204.1z"/>
		<path class="st2" d="M58,199h2l4.1,10.7h-2l-1-2.8h-4.3l-1,2.8h-1.9L58,199z M57.4,205.5h3.3l-1.6-4.6h0L57.4,205.5z"/>
		<path class="st2" d="M66.4,206.1c0,1.7,1.2,2.3,2.7,2.3c1.6,0,2.3-0.8,2.3-1.6c0-0.8-0.4-1.2-0.9-1.3c-0.8-0.3-1.7-0.5-3.2-0.9
			c-1.8-0.5-2.4-1.6-2.4-2.7c0-2.1,2-3.2,3.9-3.2c2.2,0,4.1,1.2,4.1,3.4h-1.9c-0.1-1.4-1-1.9-2.3-1.9c-0.9,0-2,0.3-2,1.4
			c0,0.8,0.5,1.2,1.3,1.4c0.2,0,2.5,0.7,3.1,0.8c1.4,0.4,2.1,1.6,2.1,2.7c0,2.4-2.1,3.4-4.3,3.4c-2.4,0-4.4-1.2-4.5-3.8H66.4z"/>
		<path class="st2" d="M76.1,206.1c0,1.7,1.2,2.3,2.7,2.3c1.6,0,2.3-0.8,2.3-1.6c0-0.8-0.4-1.2-0.9-1.3c-0.8-0.3-1.7-0.5-3.2-0.9
			c-1.8-0.5-2.4-1.6-2.4-2.7c0-2.1,2-3.2,3.9-3.2c2.2,0,4.1,1.2,4.1,3.4h-1.9c-0.1-1.4-1-1.9-2.3-1.9c-0.9,0-2,0.3-2,1.4
			c0,0.8,0.5,1.2,1.3,1.4c0.2,0,2.5,0.7,3.1,0.8c1.4,0.4,2.1,1.6,2.1,2.7c0,2.4-2.1,3.4-4.3,3.4c-2.4,0-4.4-1.2-4.5-3.8H76.1z"/>
		<path class="st2" d="M83.6,199h1.9l1.9,8.2h0l2.2-8.2h1.9l2.1,8.2h0l2-8.2h1.9l-3,10.7h-1.9l-2.1-8.2h0l-2.2,8.2h-1.9L83.6,199z"
			/>
		<path class="st2" d="M108.5,204.4c0,3.1-1.9,5.6-5.1,5.6s-5.1-2.5-5.1-5.6c0-3.1,1.9-5.6,5.1-5.6S108.5,201.3,108.5,204.4z
			 M100.1,204.4c0,2.1,1,4.1,3.3,4.1s3.3-2,3.3-4.1c0-2.1-1-4.1-3.3-4.1S100.1,202.3,100.1,204.4z"/>
		<path class="st2" d="M110.2,199h5.1c2.3,0,3.5,1.1,3.5,2.9c0,2.1-1.4,2.6-1.8,2.7v0c0.6,0.1,1.6,0.6,1.6,2.3
			c0,1.2,0.2,2.4,0.6,2.8h-2c-0.3-0.5-0.3-1-0.3-1.6c0-2-0.4-2.8-2.1-2.8H112v4.4h-1.9V199z M112,203.9h3.1c1.2,0,1.8-0.6,1.8-1.7
			c0-1.4-0.9-1.6-1.9-1.6h-3V203.9z"/>
		<path class="st2" d="M120.7,199h4.4c3.3,0,4.7,2.4,4.7,5.4c0,3-1.4,5.4-4.7,5.4h-4.4V199z M122.6,208.2h1.8c2.9,0,3.6-1.7,3.6-3.8
			c0-2.1-0.6-3.8-3.6-3.8h-1.8V208.2z"/>
		<path class="st2" d="M135.7,199h2.6l3,8.4h0l2.9-8.4h2.6v10.7H145v-8.3h0l-3,8.3h-1.5l-3-8.3h0v8.3h-1.8V199z"/>
		<path class="st2" d="M151.9,199h2l4.1,10.7h-2l-1-2.8h-4.3l-1,2.8h-1.9L151.9,199z M151.3,205.5h3.3l-1.6-4.6h0L151.3,205.5z"/>
		<path class="st2" d="M159,199h2l4.9,7.9h0V199h1.8v10.7h-2l-4.9-7.9h0v7.9H159V199z"/>
		<path class="st2" d="M172.8,199h2l4.1,10.7h-2l-1-2.8h-4.3l-1,2.8h-1.9L172.8,199z M172.1,205.5h3.3l-1.6-4.6h0L172.1,205.5z"/>
		<path class="st2" d="M189.2,209.7H188l-0.3-1.3c-1,1.1-1.9,1.5-3.2,1.5c-3.2,0-5.1-2.5-5.1-5.6c0-3.1,1.9-5.6,5.1-5.6
			c2.3,0,4.3,1.2,4.6,3.7h-1.8c-0.2-1.4-1.4-2.1-2.8-2.1c-2.3,0-3.3,2-3.3,4.1c0,2.1,1,4.1,3.3,4.1c1.9,0,3-1.1,3-2.9h-2.8v-1.4h4.6
			V209.7z"/>
		<path class="st2" d="M191.3,199h7.7v1.6h-5.8v2.8h5.4v1.5h-5.4v3.1h5.9v1.6h-7.8V199z"/>
		<path class="st2" d="M200.7,199h5.1c2.3,0,3.5,1.1,3.5,2.9c0,2.1-1.4,2.6-1.8,2.7v0c0.6,0.1,1.6,0.6,1.6,2.3
			c0,1.2,0.2,2.4,0.6,2.8h-2c-0.3-0.5-0.3-1-0.3-1.6c0-2-0.4-2.8-2.1-2.8h-2.8v4.4h-1.9V199z M202.6,203.9h3.1
			c1.2,0,1.8-0.6,1.8-1.7c0-1.4-0.9-1.6-1.9-1.6h-3V203.9z"/>
	</g>
	<g>
		<g>
			<path class="st3" d="M107.1,102.4c0,14.2,9.2,25.7,20.6,25.7s20.6-11.5,20.6-25.7s-9.2-25.7-20.6-25.7
				C116.3,76.8,107.1,88.3,107.1,102.4z M146.1,101.9c0,12.5-8.3,22.7-18.4,22.7c-10.2,0-18.4-10.2-18.4-22.7s8.3-22.7,18.4-22.7
				C137.9,79.2,146.1,89.4,146.1,101.9z"/>
			<path class="st3" d="M97.8,103.5c0,20.2,13.4,36.5,29.9,36.5s29.9-16.4,29.9-36.5c0-20.2-13.4-36.5-29.9-36.5
				S97.8,83.4,97.8,103.5z M155.4,103c0,18.5-12.4,33.6-27.7,33.6S100,121.5,100,103s12.4-33.6,27.7-33.6S155.4,84.5,155.4,103z"/>
			<path class="st3" d="M102.5,103c0,17.2,11.3,31.1,25.2,31.1s25.2-14,25.2-31.1c0-17.2-11.3-31.1-25.2-31.1
				C113.8,71.9,102.5,85.8,102.5,103z M150.8,102.4c0,15.5-10.3,28.2-23.1,28.2c-12.7,0-23.1-12.6-23.1-28.2
				c0-15.5,10.3-28.2,23.1-28.2C140.4,74.3,150.8,86.9,150.8,102.4z"/>
			<path class="st3" d="M125.6,100.2c0,2.3,1.1,4,2.1,4s2.1-1.7,2.1-4s-1.1-4-2.1-4C126.7,96.3,125.6,98,125.6,100.2z"/>
			<path class="st3" d="M93.2,104.1c0,23.1,15.5,42,34.5,42s34.5-18.8,34.5-42c0-23.1-15.5-42-34.5-42
				C108.7,62.1,93.2,81,93.2,104.1z M160,103.5c0,21.5-14.5,39-32.3,39s-32.3-17.5-32.3-39s14.5-39,32.3-39S160,82,160,103.5z"/>
			<path class="st3" d="M88.6,104.6c0,26.1,17.6,47.4,39.1,47.4c21.6,0,39.1-21.3,39.1-47.4s-17.6-47.4-39.1-47.4
				C106.1,57.2,88.6,78.5,88.6,104.6z M164.7,104.1c0,24.5-16.6,44.4-37,44.4s-37-19.9-37-44.4s16.6-44.4,37-44.4
				C148.1,59.7,164.7,79.6,164.7,104.1z"/>
			<path class="st2" d="M127.7,160.5c25.5,0,46.2-24.8,46.2-55.3c0-26.8-16-49.7-38.1-54.4c-0.7-0.1-1.3,0.3-1.5,0.9
				c-0.1,0.7,0.3,1.3,0.9,1.5c20.9,4.5,36.1,26.3,36.1,52c0,29.1-19.6,52.8-43.8,52.8c-24.1,0-43.8-23.7-43.8-52.8
				c0-7.3,1.2-14.4,3.6-21c0.2-0.6-0.1-1.3-0.7-1.6c-0.6-0.2-1.3,0.1-1.6,0.7c-2.5,6.9-3.7,14.2-3.7,21.8
				C81.5,135.7,102.2,160.5,127.7,160.5z"/>
			<path class="st2" d="M173.7,128.3c-0.6-0.2-1.3,0.1-1.6,0.7c-7.7,21.3-25.1,35-44.4,35c-19.2,0-36.7-13.7-44.4-35
				c-0.2-0.6-0.9-1-1.6-0.7c-0.6,0.2-1,0.9-0.7,1.6c8.1,22.2,26.4,36.6,46.7,36.6s38.6-14.4,46.7-36.6
				C174.6,129.2,174.3,128.5,173.7,128.3z"/>
			<path class="st2" d="M143.1,167.8c-5,1.8-10.2,2.8-15.5,2.8c-18,0-34.9-11.2-43.9-29.1c-0.3-0.6-1-0.9-1.7-0.5
				c-0.6,0.3-0.9,1-0.5,1.7c9.5,18.8,27.1,30.5,46.1,30.5c5.6,0,11.1-1,16.3-2.9c0.6-0.2,1-0.9,0.7-1.6
				C144.5,167.9,143.8,167.5,143.1,167.8z"/>
			<path class="st2" d="M165.3,151.3c-4.8,6.1-10.5,10.8-16.9,14.1c-0.6,0.3-0.8,1.1-0.5,1.7c0.2,0.4,0.7,0.7,1.1,0.7
				c0.2,0,0.4,0,0.6-0.1c6.8-3.5,12.7-8.5,17.7-14.8c0.4-0.5,0.3-1.3-0.2-1.7C166.5,150.7,165.7,150.8,165.3,151.3z"/>
			<path class="st2" d="M173.3,140.8c-0.6-0.3-1.4-0.1-1.7,0.5c-1.1,2.2-2.4,4.4-3.7,6.4c-0.4,0.6-0.2,1.3,0.3,1.7
				c0.2,0.1,0.4,0.2,0.7,0.2c0.4,0,0.8-0.2,1-0.5c1.4-2.1,2.7-4.3,3.9-6.6C174.1,141.9,173.9,141.1,173.3,140.8z"/>
			<path class="st2" d="M87.8,80.4c0.1,0.1,0.3,0.1,0.5,0.1c0.5,0,1-0.3,1.1-0.8c6.7-16.9,22.7-27.7,39.8-27.1
				c0.7,0,1.3-0.5,1.3-1.2s-0.5-1.3-1.2-1.3c-9.1-0.3-17.9,2.3-25.5,7.6c-7.4,5.2-13.2,12.5-16.6,21.1
				C86.9,79.4,87.2,80.1,87.8,80.4z"/>
			<g>
				<path class="st2" d="M148.4,95.6c0.6,0.3,1.2,0.6,1.9,0.9c-0.2-1.1-0.4-2.1-0.7-3.1c-0.3,0.6-0.5,1.1-0.8,1.7
					C148.6,95.3,148.5,95.5,148.4,95.6z"/>
				<path class="st2" d="M107.8,95.9c-0.2-0.2-0.5-0.5-0.6-0.8c-0.4-0.8-0.7-1.6-1.1-2.4c-0.4,1.5-0.8,3-1,4.6
					C105.9,96.9,106.8,96.4,107.8,95.9C107.8,96,107.8,95.9,107.8,95.9z"/>
				<path class="st2" d="M111.7,84.6l0.5,1c3.8-5.4,9.3-8.8,15.5-8.8c6.4,0,12.1,3.6,15.9,9.4c0.3-0.6,0.6-1.3,0.9-1.9
					c0.1-0.2,0.2-0.4,0.4-0.6c-4.2-5.8-10.4-9.4-17.2-9.4c-6.7,0-12.8,3.6-17,9.2C111.1,83.7,111.5,84.1,111.7,84.6z"/>
				<path class="st2" d="M135,127L135,127c-2.2,1-4.8,1.1-7.3,1.1c-2.3,0-4.4-0.5-6.5-1.3c-1.5-0.2-3.1-0.5-4.8-0.8
					c-0.7-0.2-1.4-0.3-2-0.5c3.8,3.2,8.3,5.1,13.3,5.1c4.8,0,9.2-1.8,12.9-4.8C138.7,126.3,136.9,126.7,135,127z"/>
			</g>
			<g>
				<path class="st2" d="M152.5,97.7c0.9,0.5,1.8,1,2.7,1.5c-0.4-4.1-1.4-8-2.9-11.5c-0.1,0.2-0.2,0.4-0.2,0.5l-0.9,1.9
					c-0.1,0.2-0.2,0.4-0.3,0.7C151.6,92.9,152.2,95.2,152.5,97.7z"/>
				<path class="st2" d="M147.3,123.5c-0.3,0.1-0.6,0.2-0.9,0.4c-4.6,6.3-11.3,10.3-18.7,10.3c-7.5,0-14.3-4.1-18.9-10.5
					c-1.3-0.5-2.7-1.1-4-1.7c5,8.9,13.4,14.7,22.9,14.7s17.8-5.8,22.8-14.6C149.5,122.5,148.4,123,147.3,123.5z"/>
				<path class="st2" d="M102.7,98.6c0.3-3,1.1-5.9,2.1-8.6c-0.3-0.6-0.5-1.2-0.8-1.8c-0.4-0.8-0.3-1.4-0.1-1.8s0.5-1,1.3-1.3
					c0.9-0.4,1.8-0.8,2.7-1.3c4.6-7.2,11.8-11.9,19.8-11.9c7.7,0,14.6,4.3,19.2,11c0.3,0,0.6,0.1,0.8,0.3c0.7,0.3,1.4,0.7,2.1,1
					l1.1,0.5c-5-9.2-13.5-15.2-23.2-15.2c-14.5,0-26.4,13.6-27.6,30.9C101,99.7,101.8,99.1,102.7,98.6z"/>
			</g>
			<g>
				<path class="st2" d="M97.9,101.8C98.6,82.4,111.7,67,127.7,67c15.6,0,28.5,14.8,29.8,33.6c0.9,0.6,1.7,1.1,2.6,1.8
					c-0.5-20.9-14.8-37.8-32.3-37.8c-17.8,0-32.3,17.5-32.3,39v0.1C96.2,103,97,102.4,97.9,101.8z"/>
				<path class="st2" d="M154.4,120c-4.9,11.9-15,20.1-26.7,20.1s-21.8-8.2-26.7-20.2c-1.1-0.6-2.2-1.3-3.4-2
					c4.7,14.4,16.4,24.7,30.1,24.7c13.6,0,25.3-10.3,30.1-24.7C156.7,118.6,155.5,119.3,154.4,120z"/>
			</g>
			<g>
				<path class="st2" d="M160.9,115.6c-4.1,17.5-17.4,30.4-33.2,30.4c-15.7,0-28.9-12.8-33.1-30.3c-0.6-0.5-1.3-0.9-1.9-1.4
					c-0.4-0.3-0.7-0.5-1-0.8c3.6,19.9,18.4,34.9,36.1,34.9c17.8,0,32.7-15.2,36.2-35.4C162.9,114,161.9,114.8,160.9,115.6z"/>
				<path class="st2" d="M93.2,105.4c0-0.4,0-0.9,0-1.3c0-23.1,15.5-42,34.5-42s34.4,18.7,34.5,41.8c0.8,0.6,1.6,1.2,2.4,2
					c0-0.6,0-1.2,0-1.8c0-24.5-16.6-44.4-37-44.4s-37,19.9-37,44.4c0,1.2,0.1,2.4,0.1,3.5C91.6,106.9,92.4,106.1,93.2,105.4z"/>
			</g>
			<path class="st2" d="M127.7,54.8c-22.9,0-41.6,22.4-41.6,49.9s18.7,49.9,41.6,49.9s41.6-22.4,41.6-49.9
				C169.3,77.1,150.6,54.8,127.7,54.8z M127.7,152c-21.6,0-39.1-21.3-39.1-47.4s17.6-47.4,39.1-47.4c21.6,0,39.1,21.3,39.1,47.4
				c0,1.1,0,2.1-0.1,3.2c0.2,0.3,0.4,0.7,0.4,1.2c0,0.8-0.3,1.3-0.6,1.7C164,134,147.6,152,127.7,152z"/>
		</g>
		<path class="st2" d="M128.1,120.9c-1.8,0-3.7-0.5-5.4-1.3c-5.3-2.8-7.6-9.4-5.1-14.9c2.3-5,7-6.7,10.3-6.7c0.3,0,0.6,0,0.9,0
			c-1.3,1.6-1.5,3.3-0.7,5.1c0.8,1.8,2.6,2.9,4.6,2.9c0.3,0,0.6,0,0.9-0.1c1.8-0.3,3.1-1.5,3.7-3.2c2.3,3.1,3.1,8.3,0.6,12.5
			C135.8,118.8,132.2,120.9,128.1,120.9z"/>
		<path class="st2" d="M139.6,122.9c4.1-3.4,6.2-7.9,6.2-13.4c0-5.6-2-10.2-6.2-13.7c6.6,1.7,13,4.8,19.4,9.6c1.5,1.1,3,2.3,4.8,3.8
			c-5.1,4.9-11,8.7-17.7,11.5C144,121.6,141.9,122.3,139.6,122.9z"/>
		<path class="st2" d="M116.9,123c-7.7-1.8-15.1-5.4-22.5-11c-0.4-0.3-0.8-0.6-1.2-0.9c-0.3-0.3-0.6-0.5-1-0.8
			c2.3-2.3,4.9-4.5,7.8-6.5c5.1-3.6,10.3-6.2,15.8-7.8c-4,3.6-5.9,8.3-5.6,13.9C110.5,115.4,112.8,119.8,116.9,123z"/>
		<path class="st2" d="M146.2,93.4c-0.8-0.4-1.6-0.8-2.3-1.1c1-2.1,2-4.2,3.1-6.2c0.5,0.3,1,0.5,1.5,0.8l0.7,0.4l-0.7,1.5
			C147.7,90.3,146.9,91.8,146.2,93.4z"/>
		<path class="st2" d="M109.6,93.3c-0.9-1.9-1.8-3.8-2.7-5.8c0.8-0.4,1.5-0.7,2.3-1.1l2.7,5.8C111.9,92.2,110.1,93,109.6,93.3z"/>
		<polygon class="st2" points="127,89.8 126.9,80.5 129.5,80.4 129.6,89.7 129.5,89.8 		"/>
	</g>
</g>
</svg>
